<svg id="Layer_2" data-name="Layer 2" xmlns="http://www.w3.org/2000/svg" width="395.93" height="312.14" viewBox="0 0 395.93 312.14"><defs><style>.cls-1{fill:#060;}.cls-2{isolation:isolate;font-size:80.33px;fill:#f63;font-family:Arial-BoldMT, Arial;font-weight:700;}</style></defs><title>MSAH</title><g id="Layer_2-2" data-name="Layer 2"><path class="cls-1" d="M194.18,5.26C242.62,14.91,302.83,57.55,329,119.51c23.8-9.92,68.81-13.29,68.44-13.75C309.69-3.51,191.66,4.76,194.18,5.26Z" transform="translate(-1.53 -4.93)"/><path class="cls-1" d="M3.33,113.19c12.86.42,38.88,5.67,65.8,13.78C83.33,78.33,117.32,33.32,190.54,5.56,110.23,11.42,53.64,36,3.33,113.19Z" transform="translate(-1.53 -4.93)"/><path class="cls-1" d="M193.57,242.95c1.46,0,1.18,2.36.5,3.11-.18.2-71.52.84-71.52.84,0,1.46.16,3.72-.16,3.53-.44.23-90.64-.61-90.87-.21,0,1.52,0,6.3,0,7.89,1.44-.33,91.18-.13,91.18-.13s.21,8.77.28,11c-.92.15-113.44.06-114.29.15v5.79l48.21.48c51.72.2,65.93.54,65.93.54l.08,5.88s21.46-.14,31.1,1.16c3.5.85,9,1.15,13.53,8.83,3.77,3.46,13.45,25.25,13.45,25.25h26.38s2-14,3-17.27c1.46-5,3-18.38,8.24-25.06,2.9-3.71,19.2-16.23,22.92-18.19,6.17-3.31,56.92-10.37,62-10.77,0,0,.22-29.05-.32-29.7-5.82.19-9.47-2.18-13.24-4.08-1.59-.8-83-63-83.73-64.33-.64-1.05-1.33-31.92-1.2-32.58,11.3-2.23,39.64,5.66,39.64,5.66l-.73-6.68c-5.32-56.82-30.73-96.9-50.86-105.53C189.18,6.86,148.54,49,151.68,125.77c.59,1.15,24.3-8.82,43.35-10.3.46.55,2.33,31.6,1.76,32.27-.7.07-14.48.19-14.48.19" transform="translate(-1.53 -4.93)"/><path class="cls-1" d="M196.33,7.43c-2-.43,43.69,21.36,53,113.24,35.94-8,73.78,1.83,74.1.93C301.59,64.23,251,19.31,196.33,7.43Z" transform="translate(-1.53 -4.93)"/><path class="cls-1" d="M76.47,126.94c26.89-6.28,69.74-.3,69.74-.3v-2.51C147,82,160.77,35.17,191.6,7,189.42,7,99.81,37.87,76.47,126.94Z" transform="translate(-1.53 -4.93)"/><text class="cls-2" transform="translate(0 239.99) scale(1.1 1)">MSAH</text></g></svg>